#N canvas 524 378 450 300 12;
#X declare -lib Gem;
#X obj 287 14 declare -lib Gem;
#N canvas 529 196 538 522 buffer 0;
#X obj 32 134 ggee/shell;
#X obj 33 50 pdcontrol;
#X msg 33 24 dir 1 ../vid;
#X msg 33 76 ls \$1;
#X obj 130 202 list store;
#X msg 108 163 append \$1;
#X obj 42 199 sel;
#X obj 32 105 t a b;
#X obj 206 264 list length;
#X obj 281 70 pix_buffer intro_animation;
#X msg 206 290 resize \$1;
#X obj 231 388 s intro_animation;
#X obj 129 234 t a a;
#X obj 42 233 t b b;
#X obj 41 294 list-abs/list-drip;
#X obj 42 267 list;
#X obj 41 320 t a b;
#X obj 89 321 f;
#X obj 128 320 + 1;
#X msg 166 394 0;
#X obj 37 432 list;
#X obj 38 165 list;
#X obj 197 22 bng 15 250 50 0 empty empty empty 17 7 0 10 -262144 -1
-1;
#X msg 40 458 open \$1 \$2;
#X obj 25 400 pdcontrol;
#X obj 23 346 makefilename ../vid/%s;
#X msg 24 374 dir 1 \$1;
#X obj 159 98 loadbang;
#X obj 165 344 t b b;
#X obj 281 96 s buffer-size;
#X connect 0 0 21 0;
#X connect 0 1 6 0;
#X connect 1 0 3 0;
#X connect 2 0 1 0;
#X connect 3 0 7 0;
#X connect 4 0 12 0;
#X connect 5 0 4 0;
#X connect 6 0 13 0;
#X connect 7 0 0 0;
#X connect 7 1 4 1;
#X connect 8 0 10 0;
#X connect 9 0 29 0;
#X connect 10 0 11 0;
#X connect 12 0 15 1;
#X connect 12 1 8 0;
#X connect 13 0 15 0;
#X connect 13 1 4 0;
#X connect 14 0 16 0;
#X connect 14 1 28 0;
#X connect 15 0 14 0;
#X connect 16 0 25 0;
#X connect 16 1 17 0;
#X connect 17 0 18 0;
#X connect 17 0 20 1;
#X connect 18 0 17 1;
#X connect 19 0 17 1;
#X connect 20 0 23 0;
#X connect 21 0 5 0;
#X connect 22 0 9 0;
#X connect 23 0 11 0;
#X connect 24 0 20 0;
#X connect 25 0 26 0;
#X connect 26 0 24 0;
#X connect 27 0 2 0;
#X connect 28 0 19 0;
#X connect 28 1 9 0;
#X restore 287 44 pd buffer;
#N canvas 576 111 626 426 play 0;
#X obj 52 128 gemhead;
#X obj 52 154 t a b;
#X obj 52 180 pix_buffer_read intro_animation;
#X obj 52 206 pix_separator;
#X obj 52 232 separator;
#X obj 52 258 pix_texture;
#X obj 276 134 counter -m 424;
#X obj 55 5 tgl 15 0 empty empty empty 17 7 0 10 -262144 -1 -1 0 1
;
#X obj 52 285 rectangle 2.25 4;
#X obj 346 381 text set labels;
#X obj 271 157 t f f;
#X obj 388 291 f;
#X obj 390 332 t f b;
#X msg 446 327 10000;
#X obj 378 256 bng 15 250 50 0 empty empty empty 17 7 0 10 -262144
-1 -1;
#X text 416 266 <-- set label;
#X obj 311 176 s curr-frame;
#X obj 108 29 loadbang;
#X msg 88 83 0;
#X obj 420 221 r curr-frame;
#X obj 311 220 r set-label;
#X obj 14 32 r play;
#X connect 0 0 1 0;
#X connect 1 0 2 0;
#X connect 1 1 6 0;
#X connect 2 0 3 0;
#X connect 3 0 4 0;
#X connect 4 0 5 0;
#X connect 5 0 8 0;
#X connect 6 0 10 0;
#X connect 7 0 0 0;
#X connect 10 0 2 1;
#X connect 10 1 16 0;
#X connect 11 0 12 0;
#X connect 12 0 9 0;
#X connect 12 1 13 0;
#X connect 13 0 9 1;
#X connect 14 0 11 0;
#X connect 17 0 18 0;
#X connect 18 0 0 0;
#X connect 19 0 11 1;
#X connect 20 0 11 0;
#X connect 21 0 0 0;
#X restore 39 26 pd play;
#N canvas 0 22 450 300 gemwin 0;
#X msg 38 82 \; gemwin create \, 1 \,;
#X msg 37 32 \; gemwin 0 \, destroy \, dimen 300 500 \, frame 29.97
;
#X obj 292 177 r gemwin;
#X obj 292 203 gemwin;
#X msg 51 139 1568 2790;
#X obj 51 165 /;
#X floatatom 51 191 5 0 0 0 - - -;
#X obj 51 216 * 4;
#X msg 51 268 2.24803 4;
#X msg 146 264 281.004 500;
#X obj 132 211 * 500;
#X msg 146 238 set \$1 500;
#X msg 51 242 set \$1 4;
#X msg 194 86 \; gemwin 1;
#X connect 2 0 3 0;
#X connect 4 0 5 0;
#X connect 5 0 6 0;
#X connect 6 0 7 0;
#X connect 6 0 10 0;
#X connect 7 0 12 0;
#X connect 10 0 11 0;
#X connect 11 0 9 0;
#X connect 12 0 8 0;
#X restore 286 71 pd gemwin;
#N canvas 435 248 450 300 labels 0;
#X obj 49 28 gemhead;
#X obj 49 80 pix_buffer_read intro_animation;
#X obj 49 106 pix_separator;
#X obj 49 132 separator;
#X obj 49 158 pix_texture;
#X obj 55 5 tgl 15 0 empty empty empty 17 7 0 10 -262144 -1 -1 0 1
;
#X obj 49 185 rectangle 2.25 4;
#X obj 254 19 text define -k labels;
#A set 76 \; 106 \; 129 \; 168 \; 294 \; 331 \; 352 \; 363 \; 378 \;
;
#X floatatom 289 116 5 0 0 0 - - -;
#X obj 289 141 text get labels;
#X floatatom 286 172 5 0 0 0 - - -;
#X msg 261 218 \; gemwin 0;
#X obj 121 18 loadbang;
#X msg 121 44 0;
#X connect 0 0 1 0;
#X connect 1 0 2 0;
#X connect 2 0 3 0;
#X connect 3 0 4 0;
#X connect 4 0 6 0;
#X connect 5 0 0 0;
#X connect 8 0 9 0;
#X connect 9 0 10 0;
#X connect 10 0 1 1;
#X connect 12 0 13 0;
#X connect 13 0 0 0;
#X restore 41 60 pd labels;
#X obj 54 126 r curr-frame;
#X obj 118 269 stdout;
#X obj 53 153 list prepend curr-frame;
#X obj 156 189 r buffer-size;
#X obj 156 215 list prepend buffer-size;
#X connect 5 0 7 0;
#X connect 7 0 6 0;
#X connect 8 0 9 0;
#X connect 9 0 6 0;
