#N canvas 398 211 639 461 12;
#X obj 75 28 inlet;
#X obj 75 54 unpack;
#X obj 35 165 osc~;
#X obj 75 324 *~;
#X obj 75 350 throw~ mono;
#X obj 461 228 vline~;
#X msg 371 64 \$1 3 \, 0 1000 3;
#X obj 460 264 lop~ 100;
#X obj 118 154 osc~;
#X obj 182 152 osc~;
#X obj 115 124 * 4;
#X obj 182 122 * 6;
#X obj 118 194 *~ 0.01;
#X obj 181 197 *~ 0.01;
#X obj 253 158 osc~;
#X obj 317 156 osc~;
#X obj 253 198 *~ 0.01;
#X obj 316 201 *~ 0.01;
#X obj 250 128 * 8;
#X obj 317 126 * 10;
#X obj 379 157 osc~;
#X obj 379 127 * 7;
#X obj 120 80 t f f f f f f;
#X obj 240 19 inlet;
#X obj 239 57 unpack f f f f f;
#X obj 378 202 *~ 0.01;
#X obj 41 194 *~ 0.6;
#X connect 0 0 1 0;
#X connect 1 0 22 0;
#X connect 1 1 6 0;
#X connect 2 0 26 0;
#X connect 3 0 4 0;
#X connect 5 0 7 0;
#X connect 6 0 5 0;
#X connect 7 0 3 1;
#X connect 8 0 12 0;
#X connect 9 0 13 0;
#X connect 10 0 8 0;
#X connect 11 0 9 0;
#X connect 12 0 3 0;
#X connect 13 0 3 0;
#X connect 14 0 16 0;
#X connect 15 0 17 0;
#X connect 16 0 3 0;
#X connect 17 0 3 0;
#X connect 18 0 14 0;
#X connect 19 0 15 0;
#X connect 20 0 25 0;
#X connect 21 0 20 0;
#X connect 22 0 2 0;
#X connect 22 1 10 0;
#X connect 22 2 11 0;
#X connect 22 3 18 0;
#X connect 22 4 19 0;
#X connect 22 5 21 0;
#X connect 23 0 24 0;
#X connect 24 0 10 1;
#X connect 24 1 11 1;
#X connect 24 2 18 1;
#X connect 24 3 19 1;
#X connect 24 4 21 1;
#X connect 25 0 3 0;
#X connect 26 0 3 0;
