#N canvas 398 211 639 461 12;
#X obj 75 28 inlet;
#X obj 75 324 *~;
#X obj 462 318 lop~ 100;
#X obj 115 124 * 4;
#X obj 182 122 * 6;
#X obj 250 128 * 8;
#X obj 317 126 * 10;
#X obj 379 127 * 7;
#X obj 42 84 t f f f f f f;
#X obj 240 19 inlet;
#X obj 239 57 unpack f f f f f;
#X obj 387 246 *~ 0.01;
#X obj 41 194 *~ 0.6;
#X obj 118 194 *~ 0.03;
#X obj 181 197 *~ 0.03;
#X obj 254 198 *~ 0.02;
#X obj 318 245 *~ 0.02;
#X obj 14 148 osc~;
#X obj 119 154 osc~;
#X obj 183 154 osc~;
#X obj 254 157 osc~;
#X obj 76 56 list split 1;
#X obj 508 200 *~ 2048;
#X obj 508 226 +~ 1;
#X obj 508 252 tabread4~ 0-cau;
#X msg 504 126 0 \, 1 \$1;
#X obj 440 222 line~;
#X msg 434 101 \$1 3;
#X obj 485 285 *~;
#X obj 506 163 line~;
#X obj 412 17 unpack f f f;
#X obj 534 65 fd_seltab;
#X msg 534 91 set \$1;
#X obj 513 41 change;
#X obj 79 407 outlet~;
#X obj 317 157 phasor~;
#X obj 318 186 +~;
#X obj 318 215 -~ 1;
#X obj 390 160 phasor~;
#X obj 391 189 +~;
#X obj 391 218 -~ 1;
#X connect 0 0 21 0;
#X connect 1 0 34 0;
#X connect 2 0 1 1;
#X connect 3 0 18 0;
#X connect 4 0 19 0;
#X connect 5 0 20 0;
#X connect 6 0 35 0;
#X connect 7 0 38 0;
#X connect 8 0 17 0;
#X connect 8 1 3 0;
#X connect 8 2 4 0;
#X connect 8 3 5 0;
#X connect 8 4 6 0;
#X connect 8 5 7 0;
#X connect 9 0 10 0;
#X connect 10 0 3 1;
#X connect 10 1 4 1;
#X connect 10 2 5 1;
#X connect 10 3 6 1;
#X connect 10 4 7 1;
#X connect 11 0 1 0;
#X connect 12 0 1 0;
#X connect 13 0 1 0;
#X connect 14 0 1 0;
#X connect 15 0 1 0;
#X connect 16 0 1 0;
#X connect 17 0 12 0;
#X connect 18 0 13 0;
#X connect 19 0 14 0;
#X connect 20 0 15 0;
#X connect 21 0 8 0;
#X connect 21 1 30 0;
#X connect 22 0 23 0;
#X connect 23 0 24 0;
#X connect 24 0 28 1;
#X connect 25 0 29 0;
#X connect 26 0 28 0;
#X connect 27 0 26 0;
#X connect 28 0 2 0;
#X connect 29 0 22 0;
#X connect 30 0 27 0;
#X connect 30 1 25 0;
#X connect 30 2 33 0;
#X connect 31 0 32 0;
#X connect 32 0 24 0;
#X connect 33 0 31 0;
#X connect 35 0 36 0;
#X connect 35 0 36 1;
#X connect 36 0 37 0;
#X connect 37 0 16 0;
#X connect 38 0 39 0;
#X connect 38 0 39 1;
#X connect 39 0 40 0;
#X connect 40 0 11 0;
