#N canvas 398 211 639 461 12;
#X obj 71 9 inlet;
#X obj 42 84 t f f f f f f;
#X obj 240 19 inlet;
#X obj 239 57 unpack f f f f f;
#X obj 378 202 *~ 0.01;
#X obj 41 194 *~ 0.6;
#X obj 118 194 *~ 0.03;
#X obj 181 197 *~ 0.03;
#X obj 254 198 *~ 0.02;
#X obj 316 201 *~ 0.02;
#X obj 14 148 osc~;
#X obj 119 154 osc~;
#X obj 182 155 osc~;
#X obj 254 157 osc~;
#X obj 318 158 osc~;
#X obj 382 158 osc~;
#X obj 115 124 * 2;
#X obj 182 122 * 3;
#X obj 250 128 * 4;
#X obj 317 126 * 5;
#X obj 379 127 * 6;
#X obj 54 35 unpack;
#X obj 48 59 mtof;
#X obj 82 365 bp~ 500 10;
#X obj 80 334 lop~ 400;
#X obj 78 303 *~;
#X obj 384 277 osc~;
#X obj 384 303 *~ 0.5;
#X obj 384 329 +~ 0.5;
#X obj 472 193 loadbang;
#X obj 472 219 crand 0 0.2;
#X obj 74 400 outlet~;
#X obj 385 381 +~ 0.7;
#X obj 384 356 *~ 0.3;
#X connect 0 0 21 0;
#X connect 1 0 10 0;
#X connect 1 1 16 0;
#X connect 1 2 17 0;
#X connect 1 3 18 0;
#X connect 1 4 19 0;
#X connect 1 5 20 0;
#X connect 2 0 3 0;
#X connect 3 0 16 1;
#X connect 3 1 17 1;
#X connect 3 2 18 1;
#X connect 3 3 19 1;
#X connect 3 4 20 1;
#X connect 4 0 25 0;
#X connect 5 0 25 0;
#X connect 6 0 25 0;
#X connect 7 0 25 0;
#X connect 8 0 25 0;
#X connect 9 0 25 0;
#X connect 10 0 5 0;
#X connect 11 0 6 0;
#X connect 12 0 7 0;
#X connect 13 0 8 0;
#X connect 14 0 9 0;
#X connect 15 0 4 0;
#X connect 16 0 11 0;
#X connect 17 0 12 0;
#X connect 18 0 13 0;
#X connect 19 0 14 0;
#X connect 20 0 15 0;
#X connect 21 0 22 0;
#X connect 22 0 1 0;
#X connect 23 0 31 0;
#X connect 24 0 23 0;
#X connect 25 0 24 0;
#X connect 26 0 27 0;
#X connect 27 0 28 0;
#X connect 28 0 33 0;
#X connect 29 0 30 0;
#X connect 30 0 26 0;
#X connect 32 0 25 1;
#X connect 33 0 32 0;
