#N canvas 613 78 565 475 12;
#N canvas 0 22 450 300 load 0;
#X obj 23 39 text;
#X obj 22 71 t b a;
#X msg 29 96 line 0 \, auto;
#X msg 22 15 read -c voicemails.txt \, bang;
#X obj 22 123 text sequence -s text t;
#X msg 22 147 dir 0 \$1;
#X obj 22 171 pdcontrol;
#X obj 65 194 f;
#X obj 100 193 + 1;
#X obj 22 195 t a b;
#X msg 98 165 0;
#X obj 22 219 pack s f;
#X obj 22 267 soundfiler;
#X obj 155 191 print;
#X obj 89 47 loadbang;
#X msg 155 167 Done loading audio files.;
#X obj 199 49 clone fd_arrayclone 6 define s-wet;
#X obj 198 70 clone fd_arrayclone 6 define s-dry;
#X msg 22 243 read -resize \$1 s-wet-\$2 s-dry-\$2;
#X obj 150 80 inlet;
#X connect 0 0 1 0;
#X connect 1 0 2 0;
#X connect 1 1 4 1;
#X connect 2 0 4 0;
#X connect 3 0 0 0;
#X connect 4 0 5 0;
#X connect 4 1 10 0;
#X connect 4 1 15 0;
#X connect 5 0 6 0;
#X connect 6 0 9 0;
#X connect 7 0 8 0;
#X connect 7 0 11 1;
#X connect 8 0 7 1;
#X connect 9 0 11 0;
#X connect 9 1 7 0;
#X connect 10 0 7 1;
#X connect 11 0 18 0;
#X connect 14 0 3 0;
#X connect 15 0 13 0;
#X connect 18 0 12 0;
#X connect 19 0 3 0;
#X restore 17 28 pd load;
#X obj 184 436 dac~;
#X obj 18 7 bng 15 250 50 0 empty empty empty 17 7 0 10 -262144 -1
-1;
#X obj 106 154 array size;
#X msg 93 6 0;
#X msg 110 85 symbol s-dry-\$1;
#X obj 127 302 tabplay~;
#X obj 106 119 t b a a, f 16;
#X msg 217 147 set \$1;
#X obj 106 178 t b a;
#X msg 129 8 1;
#X obj 237 299 tabplay~;
#X msg 230 81 set s-wet-\$1;
#X obj 289 25 fd_windows 0 2051;
#X obj 169 331 sig~ 1;
#X obj 169 355 -~;
#X obj 220 398 *~;
#X obj 155 398 *~;
#X obj 359 294 clip~ 0 1;
#X obj 189 410 +~;
#X msg 164 6 2;
#X obj 395 190 list prepend;
#N canvas 0 22 450 457 curves 0;
#X msg 37 153 0 \, 1 \$1;
#X obj 38 126 / 44.1;
#X obj 40 180 vline~;
#X obj 40 204 *~ 2048;
#X obj 40 228 +~ 1;
#X obj 40 252 tabread4~ 0-log;
#X obj 40 279 *~;
#X obj 50 20 inlet;
#X obj 40 303 outlet~;
#X obj 51 44 route 0 1 2;
#X msg 176 146 set 0-log;
#X obj 38 103 t f b;
#X obj 156 91 t b b;
#X msg 233 190 set 0-wel;
#X msg 156 115 0.5;
#X connect 0 0 2 0;
#X connect 1 0 0 0;
#X connect 2 0 3 0;
#X connect 3 0 4 0;
#X connect 4 0 5 0;
#X connect 5 0 6 0;
#X connect 5 0 6 1;
#X connect 6 0 8 0;
#X connect 7 0 9 0;
#X connect 9 0 11 0;
#X connect 9 1 12 0;
#X connect 9 2 12 0;
#X connect 10 0 5 0;
#X connect 11 0 1 0;
#X connect 11 1 10 0;
#X connect 12 0 14 0;
#X connect 12 1 13 0;
#X connect 13 0 5 0;
#X connect 14 0 2 0;
#X restore 357 266 pd curves;
#X obj 468 151 mod 3;
#X msg 214 8 3;
#X msg 243 15 4;
#X msg 245 37 5;
#X obj 393 424 writesf~ 1;
#X obj 116 240 t a b b;
#X obj 164 47 t f f f f;
#X msg 24 283 start;
#X msg 267 344 stop;
#X msg 338 370 open distorted_voicemail-\$1.wav;
#X connect 2 0 0 0;
#X connect 3 0 9 0;
#X connect 4 0 29 0;
#X connect 5 0 7 0;
#X connect 6 0 17 0;
#X connect 6 1 31 0;
#X connect 7 0 3 0;
#X connect 7 1 3 1;
#X connect 7 2 8 0;
#X connect 8 0 6 0;
#X connect 9 0 28 0;
#X connect 9 1 21 0;
#X connect 10 0 29 0;
#X connect 11 0 16 0;
#X connect 12 0 11 0;
#X connect 14 0 15 0;
#X connect 15 0 17 1;
#X connect 16 0 19 1;
#X connect 17 0 19 0;
#X connect 18 0 16 1;
#X connect 18 0 15 1;
#X connect 19 0 1 0;
#X connect 19 0 1 1;
#X connect 19 0 27 0;
#X connect 20 0 29 0;
#X connect 21 0 22 0;
#X connect 22 0 18 0;
#X connect 23 0 21 1;
#X connect 24 0 29 0;
#X connect 25 0 29 0;
#X connect 26 0 29 0;
#X connect 28 0 30 0;
#X connect 28 1 6 0;
#X connect 28 2 11 0;
#X connect 29 0 5 0;
#X connect 29 1 12 0;
#X connect 29 2 23 0;
#X connect 29 3 32 0;
#X connect 30 0 27 0;
#X connect 31 0 27 0;
#X connect 32 0 27 0;
